<?xml version="1.0" standalone="no"?>
<!DOCTYPE svg PUBLIC "-//W3C//DTD SVG 20010904//EN"
 "http://www.w3.org/TR/2001/REC-SVG-20010904/DTD/svg10.dtd">
<svg version="1.0" xmlns="http://www.w3.org/2000/svg"
 width="512.000000pt" height="512.000000pt" viewBox="0 0 512.000000 512.000000"
 preserveAspectRatio="xMidYMid meet">

<g transform="translate(0.000000,512.000000) scale(0.100000,-0.100000)"
fill="#000000" stroke="none">
<path d="M0 2560 l0 -2560 2560 0 2560 0 0 2560 0 2560 -2560 0 -2560 0 0
-2560z m4040 2440 c332 -48 569 -181 752 -424 115 -153 180 -325 210 -557 19
-152 19 -2766 0 -2918 -30 -232 -95 -404 -210 -557 -188 -249 -430 -382 -773
-426 -152 -19 -2766 -19 -2918 0 -232 30 -404 95 -557 210 -249 188 -382 430
-426 773 -19 152 -19 2766 0 2918 44 343 177 585 425 772 187 141 379 202 682
219 241 13 2717 5 2815 -10z"/>
<path d="M2525 4776 c-44 -19 -68 -51 -74 -98 -6 -37 -9 -42 -46 -53 -51 -15
-139 -60 -191 -97 l-40 -29 -40 22 c-51 28 -99 21 -140 -22 -24 -25 -29 -39
-29 -79 0 -40 5 -54 29 -79 l29 -30 -25 -58 c-14 -32 -27 -64 -30 -71 -2 -8
-38 32 -81 87 l-77 101 -103 0 c-203 -1 -859 -18 -863 -23 -3 -2 107 -201 243
-441 l247 -436 103 0 103 0 -26 -43 c-26 -42 -27 -43 -84 -42 -44 0 -63 -5
-80 -20 -32 -28 -51 -78 -44 -115 8 -36 57 -90 83 -90 16 0 19 -13 24 -107 3
-60 13 -133 22 -163 l17 -54 -25 -21 c-57 -47 -64 -115 -16 -169 38 -44 81
-54 134 -32 l38 16 46 -43 c25 -23 63 -53 83 -65 36 -22 37 -25 32 -66 -11
-78 41 -136 122 -136 28 0 44 8 70 34 19 19 34 41 34 49 0 13 19 16 105 19 58
2 105 0 105 -3 0 -4 -21 -50 -46 -103 -28 -59 -43 -104 -39 -114 16 -41 501
-830 506 -824 20 20 483 829 482 842 0 8 -20 58 -45 111 l-46 95 111 -4 c107
-5 111 -6 134 -33 64 -76 203 -29 203 68 0 34 4 40 42 62 23 13 63 44 89 68
43 40 50 43 86 37 50 -8 96 14 123 59 26 43 25 77 -5 120 l-24 37 19 76 c12
44 20 110 20 154 0 70 2 78 23 89 52 28 72 104 42 160 -16 32 -75 64 -109 59
-20 -2 -32 9 -69 64 l-45 67 97 3 96 3 227 430 c125 237 228 433 228 438 0 4
-216 7 -481 7 l-480 0 -59 -55 -58 -56 -22 38 -22 37 22 39 c65 116 -61 233
-169 157 -23 -16 -26 -16 -79 16 -56 34 -147 68 -214 80 -31 5 -38 10 -38 30
0 77 -84 132 -155 100z m94 -20 c30 -16 51 -53 51 -91 0 -21 7 -25 58 -35 78
-17 149 -44 207 -81 l48 -31 38 21 c66 37 122 22 155 -40 18 -36 12 -76 -17
-114 l-21 -25 24 -37 c12 -21 35 -72 49 -113 25 -72 28 -75 62 -81 44 -7 61
-20 77 -59 26 -62 -7 -126 -71 -139 -30 -6 -33 -11 -49 -76 -10 -39 -22 -83
-29 -98 -16 -42 -15 -44 37 -50 26 -3 67 -12 92 -21 40 -14 45 -14 53 1 39 69
119 82 173 28 28 -28 33 -98 10 -130 -13 -18 -9 -25 40 -78 29 -31 65 -78 80
-102 24 -42 29 -45 67 -45 60 -1 107 -45 107 -100 0 -32 -30 -78 -59 -90 -25
-10 -26 -13 -28 -108 -1 -61 -8 -121 -20 -163 l-19 -66 23 -27 c35 -41 32 -99
-8 -138 -28 -29 -34 -30 -83 -25 -52 5 -54 4 -95 -37 -23 -23 -64 -55 -91 -72
-40 -24 -50 -34 -50 -57 0 -41 -26 -84 -62 -103 -40 -20 -97 -6 -127 32 -19
24 -26 26 -118 28 -69 1 -121 9 -175 25 l-77 24 -31 -27 c-17 -14 -43 -26 -56
-26 -71 0 -125 71 -104 136 11 33 10 36 -30 82 -23 26 -45 47 -49 47 -4 0 -35
-29 -68 -66 -46 -48 -59 -69 -52 -80 20 -33 10 -80 -26 -116 -32 -32 -39 -35
-78 -30 -29 4 -50 15 -68 34 -25 29 -25 29 -75 15 -27 -8 -99 -15 -161 -16
-98 -1 -113 -3 -113 -18 0 -28 -49 -77 -84 -84 -75 -14 -139 60 -115 133 6 19
9 36 7 37 -1 1 -21 13 -43 26 -22 14 -63 46 -92 73 -50 47 -53 48 -75 33 -55
-38 -148 -2 -163 63 -6 29 16 101 32 101 4 0 16 7 26 14 18 14 18 17 -3 83
-16 50 -22 95 -23 171 -1 74 -5 102 -14 102 -26 0 -65 25 -79 51 -22 44 -17
85 14 121 30 33 72 42 118 25 19 -7 26 0 53 43 17 28 50 71 72 95 39 42 40 45
25 67 -33 47 -10 126 43 148 44 18 97 5 122 -29 l21 -28 74 23 c41 13 88 24
104 24 16 0 31 3 33 8 3 4 -7 43 -21 87 l-26 80 -39 0 c-72 0 -122 90 -87 156
14 25 62 49 97 49 27 0 30 4 40 55 7 30 24 82 38 114 l26 58 -30 31 c-25 24
-31 39 -31 72 0 85 97 132 164 79 l26 -21 48 35 c60 44 123 76 192 97 54 17
54 17 55 60 2 78 82 123 154 86z m1576 -410 c-23 -15 -480 -287 -512 -305 -17
-9 -28 -9 -43 -1 -27 14 -57 4 -76 -25 -35 -54 45 -116 89 -67 8 9 17 30 19
45 3 25 32 45 278 191 151 90 277 162 278 161 2 -2 -92 -184 -208 -404 l-212
-401 -108 0 c-120 0 -138 8 -115 50 42 75 -17 170 -105 170 -38 0 -69 -14 -95
-45 l-20 -23 -74 19 c-41 10 -76 20 -77 22 -2 2 6 31 16 66 11 34 20 71 20 82
0 13 13 24 40 35 57 23 80 56 80 116 0 41 -5 54 -28 78 -16 16 -44 31 -63 35
-30 6 -36 12 -50 56 l-16 50 56 54 56 55 445 0 c376 0 441 -2 425 -14z m-2316
-110 c87 -113 94 -136 36 -136 -43 0 -91 -44 -100 -92 -13 -69 43 -138 112
-138 26 0 30 -5 49 -67 23 -72 20 -83 -23 -83 -11 0 -48 -8 -80 -18 l-60 -19
-31 29 c-53 46 -151 33 -179 -24 -22 -44 -24 -67 -8 -104 15 -36 14 -38 -7
-61 -20 -21 -29 -23 -132 -23 l-111 1 -220 390 c-121 215 -221 394 -223 399
-2 5 138 -63 310 -150 235 -120 312 -163 310 -175 -5 -28 26 -65 55 -65 54 0
81 54 46 92 -17 19 -68 25 -78 8 -6 -10 -655 309 -655 322 0 8 161 11 652 16
l257 2 80 -104z m763 -1601 c27 -30 34 -45 27 -55 -13 -22 -11 -67 6 -100 31
-60 121 -79 171 -36 27 22 30 23 70 9 39 -13 43 -18 93 -125 l51 -111 -221
-381 c-122 -209 -225 -385 -230 -391 -5 -5 -9 120 -9 302 l0 311 25 16 c45 29
25 106 -26 106 -39 0 -59 -19 -59 -55 0 -26 6 -39 25 -51 l25 -16 0 -306 c0
-258 -2 -304 -14 -292 -19 21 -448 731 -453 750 -2 8 19 62 46 120 41 87 54
106 77 112 22 6 34 2 61 -22 87 -76 222 5 192 114 -8 26 -3 35 44 87 29 32 55
57 58 56 3 -1 22 -20 41 -42z"/>
<path d="M2527 4712 c-35 -38 -9 -102 41 -102 28 0 64 47 56 74 -13 46 -67 61
-97 28z"/>
<path d="M3050 4502 c-28 -22 -30 -70 -4 -89 23 -16 68 -17 82 0 24 30 23 56
-2 82 -30 30 -46 31 -76 7z"/>
<path d="M2034 4455 c-22 -34 -12 -69 26 -85 41 -17 80 7 80 50 0 59 -74 84
-106 35z"/>
<path d="M2538 4429 c-59 -9 -142 -47 -186 -84 l-33 -28 33 -34 c18 -19 58
-57 89 -84 l57 -49 51 25 51 26 0 114 c0 63 -3 116 -7 118 -5 2 -29 0 -55 -4z"/>
<path d="M2640 4314 l0 -119 50 -23 51 -23 84 77 c47 42 85 80 85 84 0 14 -76
69 -124 91 -25 11 -69 23 -96 26 l-50 6 0 -119z"/>
<path d="M2272 4265 c-11 -14 -30 -45 -41 -69 -22 -45 -48 -153 -38 -162 3 -3
57 -8 121 -11 107 -6 116 -5 121 13 4 10 13 34 21 53 15 33 14 35 -13 59 -15
14 -56 52 -89 84 l-61 60 -21 -27z"/>
<path d="M2848 4199 l-86 -80 16 -39 c10 -21 26 -41 37 -44 11 -3 67 -6 123
-6 l104 0 -7 42 c-13 77 -72 209 -93 208 -4 -1 -46 -37 -94 -81z"/>
<path d="M2536 4147 c-47 -26 -77 -80 -84 -148 l-5 -49 34 7 c46 11 204 10
258 -1 l44 -8 -6 56 c-7 68 -31 113 -77 143 -44 30 -112 30 -164 0z"/>
<path d="M3217 4072 c-53 -58 28 -137 83 -82 23 23 24 33 9 63 -22 41 -64 50
-92 19z"/>
<path d="M1892 4034 c-45 -31 -17 -104 41 -104 28 0 57 32 57 62 0 23 -35 58
-58 58 -10 0 -28 -7 -40 -16z"/>
<path d="M2195 3977 c-6 -14 6 -72 26 -124 l9 -24 51 41 c28 22 73 48 100 57
34 12 49 23 49 35 0 16 -10 18 -77 18 -43 0 -95 3 -115 6 -29 5 -39 3 -43 -9z"/>
<path d="M2800 3966 c0 -19 8 -27 38 -36 20 -7 66 -28 101 -47 35 -18 66 -32
68 -29 9 9 32 119 27 128 -3 4 -57 8 -120 8 -114 0 -114 0 -114 -24z"/>
<path d="M2498 3854 c-86 -20 -155 -60 -225 -127 -155 -148 -194 -366 -100
-559 43 -90 89 -145 168 -197 93 -62 179 -85 298 -78 116 6 182 29 269 95 179
136 244 365 161 573 -88 224 -335 351 -571 293z m349 -321 c-6 -118 -26 -256
-39 -269 -3 -3 -23 -2 -43 2 -31 6 -36 10 -30 28 13 46 38 244 32 260 -6 14
-30 16 -202 16 l-195 0 0 38 c0 21 3 42 7 45 3 4 112 7 241 7 l235 0 -6 -127z
m-217 -223 l0 -110 140 0 140 0 0 -40 0 -40 -297 2 -298 3 -3 38 -3 37 110 0
111 0 0 110 0 110 50 0 50 0 0 -110z"/>
<path d="M3436 3681 c-24 -26 -17 -60 17 -84 l27 -21 28 21 c51 38 34 103 -27
103 -15 0 -36 -9 -45 -19z"/>
<path d="M1654 3655 c-21 -31 -15 -53 19 -79 26 -19 30 -19 55 -5 33 18 42 68
17 93 -25 25 -72 20 -91 -9z"/>
<path d="M1935 3472 c-34 -12 -49 -22 -47 -32 5 -23 103 -200 110 -200 4 0 13
4 20 9 11 6 11 17 1 55 -6 26 -9 78 -7 116 6 80 6 80 -77 52z"/>
<path d="M3175 3468 c4 -13 9 -66 10 -118 4 -132 19 -132 85 0 28 55 48 105
45 110 -6 9 -93 30 -127 30 -17 0 -19 -4 -13 -22z"/>
<path d="M3306 3332 l-54 -108 35 -38 35 -38 107 37 c58 21 110 41 115 46 21
19 -96 163 -162 198 -20 11 -24 6 -76 -97z"/>
<path d="M1778 3381 c-56 -51 -117 -147 -102 -161 5 -4 57 -23 116 -43 l107
-35 26 39 26 40 -56 105 c-31 57 -58 104 -60 104 -2 0 -28 -22 -57 -49z"/>
<path d="M1392 3314 c-43 -30 -17 -104 36 -104 28 0 62 34 62 60 0 25 -34 60
-58 60 -10 0 -28 -7 -40 -16z"/>
<path d="M3727 3302 c-23 -25 -21 -58 3 -82 23 -23 33 -24 63 -9 28 15 37 28
37 55 0 47 -71 72 -103 36z"/>
<path d="M2004 3221 c-38 -23 -82 -76 -90 -107 -4 -14 -4 -48 -2 -75 11 -110
118 -157 241 -106 l38 16 -39 53 c-49 66 -88 142 -97 191 -9 47 -15 50 -51 28z"/>
<path d="M3170 3222 c0 -47 -43 -154 -85 -211 -25 -34 -45 -63 -45 -66 0 -2
25 -12 55 -21 72 -20 126 -12 171 28 84 74 57 204 -55 266 -39 22 -41 23 -41
4z"/>
<path d="M3437 3151 l-98 -37 -4 -55 -3 -55 104 -53 c57 -29 108 -50 112 -47
28 17 45 168 29 249 -10 46 -14 46 -140 -2z"/>
<path d="M1646 3158 c-18 -68 9 -268 37 -268 5 0 56 25 112 57 l102 56 -7 34
c-5 18 -6 42 -3 52 4 16 -11 24 -104 55 -59 20 -113 36 -119 36 -7 0 -14 -10
-18 -22z"/>
<path d="M1808 2904 c-54 -30 -98 -61 -98 -68 0 -23 117 -126 171 -151 29 -13
56 -22 60 -19 4 2 20 56 35 121 22 90 26 117 16 121 -7 2 -26 15 -41 28 -16
13 -33 24 -37 24 -5 -1 -53 -26 -106 -56z"/>
<path d="M3278 2936 c-15 -13 -32 -26 -39 -28 -10 -3 -6 -29 15 -109 37 -142
34 -138 98 -109 55 26 168 130 168 155 0 13 -185 116 -207 115 -5 0 -20 -11
-35 -24z"/>
<path d="M2186 2932 c-7 -11 103 -212 116 -212 7 0 34 23 61 51 l50 52 -69 32
c-38 17 -83 44 -100 58 -33 28 -49 33 -58 19z"/>
<path d="M2971 2886 c-23 -24 -62 -53 -87 -65 -24 -12 -44 -26 -44 -31 0 -5
23 -27 52 -49 l52 -40 24 42 c52 92 83 160 78 173 -9 24 -30 16 -75 -30z"/>
<path d="M2073 2893 c-29 -4 -34 -9 -44 -46 -26 -97 -47 -192 -43 -197 3 -2
37 -4 77 -4 67 0 181 26 192 44 3 4 -21 53 -51 109 -60 108 -54 103 -131 94z"/>
<path d="M3042 2790 c-29 -55 -51 -104 -48 -109 16 -25 230 -50 252 -29 7 8
-4 59 -37 171 l-20 67 -47 0 -47 0 -53 -100z"/>
<path d="M3650 2770 c-11 -11 -20 -29 -20 -40 0 -25 34 -60 58 -60 31 0 62 29
62 59 0 55 -61 80 -100 41z"/>
<path d="M1457 2762 c-35 -39 -9 -102 41 -102 28 0 62 34 62 60 0 27 -35 60
-63 60 -13 0 -31 -8 -40 -18z"/>
<path d="M2731 2563 c-33 -41 -7 -93 45 -93 52 0 74 61 37 103 -23 25 -58 21
-82 -10z"/>
<path d="M2351 2536 c-7 -8 -11 -30 -9 -48 6 -60 76 -71 107 -16 13 23 13 29
-2 52 -13 19 -26 26 -51 26 -18 0 -39 -6 -45 -14z"/>
<path d="M3287 2492 c-26 -28 -21 -69 9 -88 33 -22 75 -9 88 28 21 59 -56 106
-97 60z"/>
<path d="M1822 2474 c-26 -18 -30 -65 -6 -88 23 -24 70 -20 88 6 23 32 20 54
-10 77 -32 25 -43 26 -72 5z"/>
<path d="M302 1168 c3 -42 4 -43 41 -46 24 -2 37 -8 37 -18 0 -10 -13 -14 -45
-14 -25 0 -45 -4 -45 -10 0 -6 45 -10 115 -10 66 0 115 4 115 9 0 6 -21 11
-47 13 -60 4 -63 22 -5 26 72 5 46 21 -40 24 -70 3 -83 6 -86 21 -3 15 6 17
77 17 65 0 81 3 81 15 0 12 -18 15 -101 15 l-100 0 3 -42z"/>
<path d="M570 1195 c0 -12 16 -15 80 -15 l80 0 0 -30 0 -30 -85 0 c-69 0 -85
-3 -85 -15 0 -11 12 -15 45 -15 38 0 45 -3 45 -20 0 -17 -7 -20 -40 -20 -29 0
-40 -4 -40 -15 0 -12 16 -15 80 -15 l80 0 0 -30 c0 -23 4 -30 20 -30 17 0 20
7 20 45 l0 45 -40 0 c-33 0 -40 3 -40 20 0 17 7 20 46 20 43 0 46 2 40 23 -3
12 -6 39 -6 60 l0 37 -100 0 c-82 0 -100 -3 -100 -15z"/>
<path d="M837 1204 c-9 -9 -9 -176 -1 -198 4 -12 20 -16 55 -16 37 0 49 -4 49
-15 0 -8 9 -15 20 -15 18 0 20 7 20 60 0 47 3 60 15 60 12 0 15 -13 15 -60 0
-53 2 -60 20 -60 19 0 20 7 20 125 0 118 -1 125 -20 125 -17 0 -20 -7 -20 -50
0 -38 -4 -50 -15 -50 -11 0 -15 12 -15 50 0 43 -3 50 -20 50 -19 0 -20 -7 -20
-95 l0 -95 -35 0 -35 0 0 80 c0 79 0 80 26 80 39 0 24 24 -17 28 -19 2 -38 0
-42 -4z"/>
<path d="M1128 1203 c-27 -4 -41 -33 -16 -33 9 0 9 -3 0 -12 -19 -19 -14 -55
10 -72 61 -43 158 14 112 65 -16 17 -16 19 -1 19 17 0 23 15 10 23 -14 8 -87
15 -115 10z m76 -62 c11 -17 -6 -41 -29 -41 -27 0 -39 14 -31 35 6 16 51 20
60 6z"/>
<path d="M1270 1140 c0 -63 2 -70 20 -70 15 0 20 7 20 25 0 16 6 25 15 25 8 0
15 7 15 15 0 8 -7 15 -15 15 -10 0 -15 10 -15 30 0 23 -4 30 -20 30 -18 0 -20
-7 -20 -70z"/>
<path d="M1380 1195 c0 -12 16 -15 80 -15 l80 0 0 -74 c0 -41 -3 -81 -6 -90
-13 -34 -24 -13 -24 44 0 53 -2 60 -20 60 -16 0 -19 -8 -22 -57 -4 -81 -28
-85 -28 -4 0 54 -2 61 -20 61 -18 0 -20 -7 -20 -55 0 -40 -4 -57 -15 -61 -39
-15 -5 -24 95 -24 67 0 110 4 110 10 0 6 -3 10 -8 10 -4 0 -6 47 -4 105 l4
105 -101 0 c-83 0 -101 -3 -101 -15z"/>
<path d="M3970 1156 c0 -11 -15 -16 -52 -18 -46 -3 -53 -6 -56 -25 -3 -20 1
-23 28 -23 l32 0 -31 -29 c-76 -71 -9 -161 119 -161 120 0 182 93 109 161
l-31 29 31 0 c26 0 31 4 31 25 0 24 -3 25 -55 25 -42 0 -55 3 -55 15 0 10 -11
15 -35 15 -24 0 -35 -5 -35 -14z m94 -127 c26 -37 -4 -79 -58 -79 -35 0 -66
25 -66 55 0 32 19 45 66 45 32 0 47 -5 58 -21z"/>
<path d="M4200 1030 l0 -140 34 0 35 0 3 53 c3 45 6 52 26 55 16 2 22 10 22
27 0 17 -6 25 -22 27 -20 3 -23 10 -26 61 l-3 57 -34 0 -35 0 0 -140z"/>
<path d="M1830 1065 c0 -129 -5 -126 216 -123 l169 3 3 108 3 107 -41 0 c-36
0 -40 -2 -40 -25 l0 -26 -117 3 c-114 3 -118 4 -121 26 -3 18 -10 22 -38 22
l-34 0 0 -95z m310 -35 l0 -30 -120 0 -120 0 0 30 0 30 120 0 120 0 0 -30z"/>
<path d="M2486 1126 c-17 -41 -46 -62 -113 -82 -48 -14 -52 -17 -43 -35 6 -10
16 -19 24 -19 28 0 113 31 145 53 l35 24 34 -24 c35 -23 120 -53 153 -53 18 0
34 29 22 40 -4 4 -28 12 -53 19 -56 16 -108 54 -116 86 -5 20 -12 25 -40 25
-29 0 -36 -5 -48 -34z"/>
<path d="M2860 1130 l0 -30 155 0 155 0 0 -110 c0 -60 -5 -132 -11 -160 l-11
-50 -49 0 -49 0 0 105 0 105 -40 0 -40 0 0 -105 0 -104 -67 -3 c-70 -3 -70 -3
-64 -48 1 -6 80 -10 216 -10 l215 0 0 30 c0 26 -4 30 -26 30 -21 0 -25 4 -19
18 13 35 26 179 23 267 l-3 90 -192 3 -193 2 0 -30z"/>
<path d="M3377 1153 c-8 -8 -9 -100 -1 -130 10 -37 48 -44 224 -41 l165 3 0
25 0 25 -157 3 -158 3 0 29 0 30 155 0 155 0 0 30 0 30 -188 0 c-104 0 -192
-3 -195 -7z"/>
<path d="M4407 1153 c-4 -3 -7 -17 -7 -29 0 -23 0 -24 158 -26 l157 -3 -2
-120 c-1 -152 -14 -205 -48 -205 l-25 0 0 110 0 110 -35 0 -35 0 0 -110 0
-110 -30 0 -30 0 0 110 0 110 -35 0 -35 0 0 -110 0 -110 -30 0 c-25 0 -30 -4
-30 -25 l0 -25 215 0 215 0 0 25 c0 20 -5 25 -23 25 l-24 0 13 63 c8 34 14
122 14 195 l0 132 -188 0 c-104 0 -192 -3 -195 -7z"/>
<path d="M334 1040 c-31 -12 -38 -40 -16 -63 45 -44 187 -25 180 25 -2 12 -14
28 -28 35 -28 14 -104 16 -136 3z m122 -31 c10 -16 -15 -29 -57 -29 -35 0 -66
20 -52 33 11 11 101 8 109 -4z"/>
<path d="M1112 1038 c3 -9 31 -14 81 -16 l77 -3 0 -29 c0 -23 5 -30 20 -30 17
0 20 7 20 45 l0 45 -101 0 c-76 0 -100 -3 -97 -12z"/>
<path d="M2498 983 c-3 -28 -3 -28 -90 -31 -86 -3 -88 -3 -88 -28 l0 -24 218
2 217 3 0 24 c0 23 -2 23 -90 25 l-90 1 -3 28 c-3 23 -8 27 -37 27 -29 0 -34
-4 -37 -27z"/>
<path d="M3350 915 l0 -25 220 0 220 0 0 25 0 25 -220 0 -220 0 0 -25z"/>
<path d="M355 878 c-2 -7 -5 -41 -7 -75 -3 -47 -10 -69 -31 -96 -38 -50 -14
-63 27 -15 l30 35 21 -31 c22 -33 55 -47 55 -23 0 8 -7 21 -17 28 -26 22 -43
74 -43 134 0 43 -3 55 -15 55 -9 0 -17 -6 -20 -12z"/>
<path d="M480 762 c0 -108 2 -129 15 -129 12 0 15 14 15 59 0 43 4 60 15 64 8
4 15 12 15 20 0 8 -7 14 -15 14 -11 0 -15 12 -15 50 0 38 -4 50 -15 50 -13 0
-15 -21 -15 -128z"/>
<path d="M660 831 c0 -35 5 -63 12 -67 6 -4 35 -8 65 -9 50 -2 53 -1 53 21 0
17 6 24 20 24 14 0 20 -7 20 -24 0 -23 22 -41 34 -29 3 4 6 37 6 75 0 61 -2
68 -20 68 -16 0 -20 -7 -20 -30 0 -23 -4 -30 -20 -30 -16 0 -20 7 -20 30 0 35
-29 43 -37 10 -3 -13 -14 -20 -29 -20 -17 0 -24 6 -24 20 0 13 -7 20 -20 20
-18 0 -20 -7 -20 -59z m90 -26 c0 -20 -5 -25 -25 -25 -20 0 -25 5 -25 25 0 20
5 25 25 25 20 0 25 -5 25 -25z"/>
<path d="M1120 791 l0 -101 -35 0 -35 0 0 80 c0 73 2 80 20 80 11 0 20 7 20
15 0 11 -11 15 -40 15 l-40 0 0 -104 c0 -116 0 -116 71 -116 29 0 39 -4 39
-16 0 -9 7 -14 18 -12 14 3 18 16 20 66 4 84 26 79 30 -7 2 -43 7 -61 15 -58
8 2 13 43 15 130 2 109 0 127 -13 127 -11 0 -15 -12 -15 -50 0 -37 -4 -50 -14
-50 -11 0 -16 14 -18 47 -2 36 -7 49 -20 51 -16 3 -18 -7 -18 -97z"/>
<path d="M1410 880 c0 -5 -13 -10 -30 -10 -29 0 -41 -15 -19 -22 9 -3 8 -10
-1 -25 -12 -18 -11 -25 3 -47 14 -21 25 -26 58 -26 22 0 49 5 60 10 22 12 26
59 7 78 -9 9 -9 12 0 12 7 0 12 5 12 10 0 6 -11 10 -25 10 -14 0 -25 5 -25 10
0 6 -9 10 -20 10 -11 0 -20 -4 -20 -10z m48 -76 c4 -26 -22 -38 -49 -24 -22
12 -24 21 -7 38 19 19 53 10 56 -14z"/>
<path d="M1530 821 c0 -50 4 -70 14 -74 19 -7 26 1 26 30 0 14 6 23 15 23 8 0
15 5 15 10 0 6 -7 13 -15 16 -9 4 -15 19 -15 35 0 22 -5 29 -20 29 -18 0 -20
-7 -20 -69z"/>
<path d="M1810 865 c0 -24 2 -24 88 -27 l87 -3 3 -77 3 -78 34 0 35 0 0 80 0
80 90 0 c89 0 90 0 90 25 l0 25 -215 0 -215 0 0 -25z"/>
<path d="M3467 847 c-62 -18 -87 -42 -87 -83 0 -63 94 -102 221 -91 71 6 99
16 137 50 39 36 22 81 -47 117 -35 18 -168 22 -224 7z m187 -57 c14 -5 26 -16
26 -25 0 -23 -42 -35 -120 -35 -51 0 -73 5 -90 18 l-23 19 24 16 c27 19 140
24 183 7z"/>
<path d="M3900 835 l0 -24 148 -3 147 -3 3 -62 3 -63 34 0 35 0 0 90 0 90
-185 0 -185 0 0 -25z"/>
<path d="M2344 835 c-8 -20 3 -46 18 -44 7 1 77 1 156 0 l142 -1 0 -53 0 -53
33 0 32 1 3 83 3 82 -191 0 c-160 0 -192 -2 -196 -15z"/>
<path d="M670 701 c0 -59 4 -61 106 -61 l94 0 0 45 0 45 -100 0 -100 0 0 -29z
m160 -16 c0 -12 -13 -15 -60 -15 -47 0 -60 3 -60 15 0 12 13 15 60 15 47 0 60
-3 60 -15z"/>
<path d="M1370 715 c0 -12 16 -15 80 -15 l80 0 0 -29 c0 -27 20 -47 34 -34 3
4 6 26 6 50 l0 43 -100 0 c-82 0 -100 -3 -100 -15z"/>
</g>
</svg>
