<?xml version="1.0" standalone="no"?>
<!DOCTYPE svg PUBLIC "-//W3C//DTD SVG 20010904//EN"
 "http://www.w3.org/TR/2001/REC-SVG-20010904/DTD/svg10.dtd">
<svg version="1.0" xmlns="http://www.w3.org/2000/svg"
 width="225.000000pt" height="225.000000pt" viewBox="0 0 225.000000 225.000000"
 preserveAspectRatio="xMidYMid meet">

<g transform="translate(0.000000,225.000000) scale(0.100000,-0.100000)"
fill="#000000" stroke="none">
<path d="M913 2175 c-202 -37 -384 -129 -536 -274 -165 -158 -271 -350 -313
-569 -19 -98 -18 -290 2 -392 62 -329 272 -602 578 -750 226 -110 452 -134
705 -74 373 88 671 381 773 762 15 55 22 120 25 227 5 135 3 161 -21 263 -94
416 -427 734 -845 807 -101 18 -270 18 -368 0z m192 -130 c0 -51 -3 -75 -12
-75 -7 0 -13 26 -15 75 -2 62 0 75 12 75 12 0 15 -15 15 -75z m-105 10 c7 -22
19 -50 26 -62 13 -21 13 -23 -5 -23 -14 0 -24 12 -34 43 l-15 42 -12 -47 c-7
-27 -15 -48 -19 -48 -3 0 -17 17 -31 37 l-25 37 -3 -47 c-5 -76 -22 -54 -22
28 0 41 3 75 8 75 4 0 20 -20 37 -45 16 -24 32 -41 36 -37 3 4 12 29 19 55 14
53 22 52 40 -8z m269 44 c53 -19 66 -67 30 -113 -15 -20 -29 -26 -57 -26 -63
0 -82 9 -73 34 5 11 11 42 15 69 8 52 22 58 85 36z m193 -55 c50 -26 58 -73
20 -116 -8 -10 -29 -18 -45 -18 -33 0 -99 21 -95 30 2 3 14 33 28 67 27 68 29
69 92 37z m-752 -24 c0 -5 -10 -10 -22 -10 -29 0 -58 -28 -58 -57 0 -32 34
-63 69 -63 38 0 47 15 27 45 -13 20 -13 24 -1 29 10 3 20 -5 30 -24 15 -29 15
-30 -17 -50 -56 -34 -108 -23 -126 27 -5 16 -6 38 -1 50 13 36 99 82 99 53z
m860 -105 c-26 -46 -30 -59 -19 -66 8 -5 20 -9 27 -9 7 0 10 -5 7 -10 -7 -12
-70 22 -70 37 0 4 15 34 34 66 22 38 37 55 44 48 6 -6 -2 -29 -23 -66z m-990
-44 l45 -54 -78 6 -77 5 28 -34 c15 -19 32 -34 37 -34 6 0 4 -4 -4 -9 -10 -7
-24 4 -51 37 -60 77 -61 74 21 66 l72 -7 -22 31 c-12 17 -26 34 -32 37 -5 4
-6 11 -3 17 3 5 9 6 13 1 4 -4 27 -32 51 -62z m618 29 c295 -37 538 -241 635
-532 27 -84 30 -106 31 -223 1 -153 -19 -238 -87 -369 -58 -114 -199 -255
-312 -313 -117 -60 -203 -84 -325 -90 -311 -16 -591 147 -726 422 -54 111 -73
182 -81 305 -21 332 187 644 507 761 121 44 226 55 358 39z m529 -12 c28 -26
31 -48 3 -23 -20 18 -21 18 -34 -1 -13 -16 -12 -22 2 -39 9 -11 10 -14 2 -7
-21 18 -38 15 -51 -10 -10 -18 -8 -24 7 -35 9 -7 14 -16 10 -20 -3 -4 -18 5
-33 19 l-26 26 44 55 c24 31 46 56 48 56 3 1 15 -9 28 -21z m-1303 -146 c68
-20 93 -49 33 -38 -45 8 -65 -17 -41 -52 8 -11 11 -23 7 -25 -5 -3 -25 26 -46
64 -23 42 -32 69 -25 69 7 0 40 -8 72 -18z m1448 -9 c20 -18 24 -33 8 -33 -5
0 -10 7 -10 16 0 9 -7 14 -17 12 -12 -2 -19 -14 -21 -38 -2 -19 -8 -41 -14
-47 -15 -18 -49 -16 -64 5 -15 20 -18 42 -5 42 5 0 8 -8 7 -17 0 -12 7 -19 22
-21 19 -3 22 1 22 28 0 63 33 88 72 53z m-1531 -104 l53 -62 -58 7 -59 8 36
-43 c20 -23 35 -44 33 -46 -3 -3 -147 17 -154 22 -1 1 0 9 3 17 6 14 12 14 58
2 28 -7 52 -12 54 -10 1 1 -13 18 -32 36 -19 19 -35 38 -35 43 0 6 22 7 52 3
l52 -7 -19 23 c-11 12 -28 29 -38 36 -14 11 -16 32 -2 32 1 0 27 -28 56 -61z
m1595 -4 c31 -21 51 -73 34 -88 -10 -10 -12 -8 -6 7 18 53 -62 88 -104 46 -26
-26 -25 -55 1 -81 26 -26 16 -39 -10 -15 -23 21 -35 67 -26 96 7 21 49 49 75
50 9 0 25 -7 36 -15z m84 -159 c0 -8 -12 -17 -26 -20 -23 -6 -26 -11 -20 -38
8 -41 11 -43 40 -30 25 11 36 7 36 -15 0 -7 -8 -13 -17 -13 -10 -1 -42 -9 -70
-19 -29 -10 -53 -17 -53 -15 0 1 -3 9 -6 18 -5 12 0 16 17 16 39 0 50 13 43
49 -7 33 -15 35 -68 15 -10 -4 -16 -1 -16 10 0 10 21 22 63 35 78 24 77 24 77
7z m-1841 -37 c-38 -38 -10 -99 46 -99 58 0 89 66 36 76 -20 4 -28 11 -24 20
5 14 48 10 66 -5 13 -12 -4 -70 -29 -96 -63 -69 -154 18 -113 109 6 13 17 22
24 19 10 -3 9 -9 -6 -24z m1874 -167 c22 -20 23 -89 0 -114 -26 -29 -87 -24
-112 8 -25 32 -27 62 -5 92 30 43 78 48 117 14z m-1919 -87 c-5 -22 -3 -25 20
-25 19 0 26 5 26 20 0 11 4 20 9 20 5 0 7 -9 4 -20 -5 -17 0 -20 26 -20 26 0
31 4 31 25 0 14 5 25 10 25 6 0 10 -18 10 -40 l0 -40 -75 0 -75 0 0 40 c0 22
5 40 10 40 6 0 8 -11 4 -25z m136 -103 c0 -11 -11 -24 -25 -30 -20 -9 -23 -15
-16 -34 4 -13 18 -24 30 -26 11 -2 21 -8 21 -14 0 -6 -10 -8 -22 -4 -13 3 -47
11 -75 17 -29 7 -53 15 -53 18 0 4 118 82 138 90 1 1 2 -7 2 -17z m1777 -8
c21 -21 24 -32 19 -62 -10 -67 -69 -91 -120 -51 -20 16 -26 29 -26 60 0 75 74
106 127 53z m-1746 -174 c17 -24 38 -102 24 -88 -4 4 -36 -3 -71 -16 l-63 -23
-11 30 c-15 44 -12 88 7 109 25 28 90 21 114 -12z m1671 -7 c32 -10 58 -24 58
-30 0 -17 -20 -16 -63 2 -56 23 -77 20 -77 -12 0 -18 -3 -24 -10 -17 -13 13
10 86 24 80 6 -3 37 -13 68 -23z m-1582 -268 c17 -20 5 -45 -20 -45 -23 0 -35
22 -26 45 7 19 30 19 46 0z m1470 0 c10 -12 10 -18 0 -30 -25 -30 -61 -7 -46
30 3 8 12 15 19 15 8 0 20 -7 27 -15z m-186 -152 c23 -33 26 -53 8 -53 -4 0
-15 14 -25 31 l-17 31 -33 -24 c-46 -35 -57 -40 -57 -29 0 8 86 81 96 81 2 0
14 -17 28 -37z m-1109 11 c32 -21 32 -36 1 -28 -18 4 -28 0 -40 -18 -15 -21
-15 -24 4 -38 12 -9 18 -19 14 -22 -7 -8 -64 18 -64 29 0 7 53 93 58 93 1 0
14 -7 27 -16z m65 -32 c0 -4 -7 -18 -16 -30 -8 -12 -11 -22 -5 -22 6 0 15 9
21 20 6 11 18 20 26 20 19 0 -74 -139 -93 -140 -18 0 -16 7 13 46 15 19 21 34
15 34 -6 0 -18 -11 -27 -25 -17 -26 -34 -33 -34 -15 0 16 79 120 90 120 6 0
10 -3 10 -8z m1036 -39 c11 -15 16 -16 33 -5 25 14 34 15 29 2 -5 -14 -111
-91 -117 -85 -2 3 0 10 7 17 8 8 7 17 -4 33 -20 30 -1 43 20 13 9 -12 19 -19
23 -15 3 4 1 13 -5 19 -13 13 -16 38 -6 38 4 0 13 -8 20 -17z m-249 -54 c3
-12 11 -18 19 -15 16 6 19 -10 5 -19 -10 -6 -1 -48 18 -83 14 -27 -5 -41 -23
-16 -11 15 -18 15 -46 6 -40 -15 -50 -15 -50 -2 0 5 18 15 40 21 22 7 40 15
40 19 0 4 -7 27 -15 50 -18 51 -19 60 -4 60 6 0 13 -9 16 -21z m-579 -10 c21
-8 22 -11 9 -36 -8 -16 -12 -34 -10 -41 5 -13 -23 -10 -74 9 -28 10 -31 33 -4
24 13 -4 21 0 24 12 4 16 6 15 12 -4 9 -29 32 -30 30 -1 -1 14 -11 25 -28 31
-15 5 -27 13 -27 19 0 9 17 6 68 -13z m552 1 c3 0 -3 -7 -13 -14 -15 -12 -16
-14 -2 -20 24 -9 18 -45 -10 -58 -30 -14 -59 5 -50 33 4 13 1 19 -9 19 -9 0
-16 5 -16 10 0 6 6 10 14 10 8 0 16 6 19 13 4 10 38 14 67 7z m-495 -30 c-3
-10 -1 -21 5 -25 6 -3 8 -11 4 -16 -3 -5 -9 -7 -14 -4 -5 3 -11 -4 -15 -15
-10 -31 -28 -24 -22 8 10 49 27 83 37 77 6 -4 8 -15 5 -25z m265 -20 c0 -5
-10 -10 -22 -11 -21 -1 -21 -2 5 -12 15 -6 27 -15 27 -20 0 -5 -12 -6 -27 -3
-35 9 -51 9 -85 0 -16 -3 -28 -2 -28 3 0 5 12 14 28 20 25 10 25 11 5 12 -13
1 -23 6 -23 11 0 6 27 10 60 10 33 0 60 -4 60 -10z m-319 -58 c28 -24 20 -52
-16 -52 -28 0 -66 16 -77 33 -23 36 52 51 93 19z m339 -12 c0 -5 -17 -10 -37
-11 -37 -1 -38 -1 -10 -11 30 -11 37 -42 11 -52 -29 -11 -81 -6 -94 9 -14 17
-6 33 24 45 17 7 15 9 -16 9 -21 1 -38 6 -38 11 0 6 33 10 80 10 47 0 80 -4
80 -10z"/>
<path d="M1215 2087 c-2 -6 -6 -34 -7 -62 -3 -48 -2 -50 24 -53 48 -6 78 68
41 100 -27 22 -53 29 -58 15z"/>
<path d="M1405 2017 c-27 -66 -29 -85 -6 -92 32 -10 58 3 71 34 14 34 2 64
-31 81 -17 10 -21 7 -34 -23z"/>
<path d="M1081 1767 c-19 -23 -173 -95 -250 -116 -41 -11 -120 -26 -177 -33
l-104 -12 0 -238 c0 -267 10 -340 62 -467 45 -106 116 -208 209 -295 78 -73
220 -171 266 -182 15 -4 45 6 90 31 180 98 328 252 403 419 62 139 80 256 80
542 l0 191 -77 7 c-174 16 -348 72 -455 147 -31 23 -32 23 -47 6z m9 -232 l0
-85 -40 0 -40 0 0 85 0 85 40 0 40 0 0 -85z m108 3 l-3 -83 -40 0 -40 0 -3 69
c-4 90 -1 96 48 96 l41 0 -3 -82z m42 42 c0 -10 6 -21 13 -24 10 -5 10 -7 0
-12 -7 -3 -13 -18 -13 -34 0 -16 6 -31 13 -34 10 -5 10 -7 0 -12 -7 -3 -13
-14 -13 -25 0 -16 -7 -19 -50 -19 -28 0 -59 -6 -70 -12 -16 -10 -24 -10 -40 0
-11 6 -40 12 -65 12 -38 0 -45 3 -45 20 0 11 -7 20 -15 20 -8 0 -15 5 -15 10
0 6 7 10 15 10 21 0 19 50 -2 66 -17 13 -17 13 0 14 10 0 17 8 17 20 0 11 5
20 10 20 6 0 10 -33 10 -80 l0 -80 49 0 c30 0 51 -5 54 -12 4 -10 7 -10 18 0
7 6 32 12 56 12 l43 0 0 78 c0 43 3 82 6 85 11 10 24 -3 24 -23z m-575 -312
c0 -63 2 -73 19 -76 10 -2 22 2 27 10 7 10 9 9 9 -4 0 -14 -9 -18 -42 -18
l-43 0 0 80 c0 64 3 80 15 80 12 0 15 -15 15 -72z m87 25 c-4 -61 11 -103 37
-103 29 0 43 34 39 96 l-3 54 36 0 c30 0 38 -5 50 -32 l16 -32 14 32 c8 18 19
32 26 32 8 0 5 -12 -8 -35 -19 -31 -20 -39 -9 -66 7 -17 19 -37 27 -45 12 -12
12 -14 -6 -14 -13 0 -27 12 -37 32 l-17 33 -15 -33 c-9 -17 -22 -32 -29 -32
-9 0 -5 13 13 40 26 39 26 39 8 71 -29 50 -44 48 -44 -5 0 -59 -14 -94 -44
-108 -20 -9 -30 -8 -50 5 -21 14 -25 25 -28 87 -2 57 0 70 12 70 12 0 14 -10
12 -47z m607 30 c0 -11 -3 -13 -6 -5 -2 6 -13 12 -24 12 -27 0 -24 -32 6 -60
16 -15 25 -34 25 -54 0 -41 13 -24 40 57 13 37 27 67 30 67 4 0 13 -19 19 -42
7 -24 21 -60 31 -80 18 -37 18 -38 0 -38 -11 0 -20 10 -24 25 -9 35 -53 35
-62 0 -4 -17 -13 -24 -28 -24 -11 0 -28 -1 -36 -2 -36 -5 -50 2 -50 24 1 20 2
20 11 5 13 -24 49 -23 49 0 0 10 -11 29 -25 42 -24 22 -34 68 -18 83 3 4 19 7
35 7 20 0 28 -5 27 -17z m183 -58 c-3 -68 -2 -75 15 -75 11 0 24 5 31 12 9 9
12 8 12 -5 0 -13 -9 -17 -44 -17 l-44 0 -4 80 c-3 74 -2 80 17 80 19 0 20 -6
17 -75z m-307 45 c3 -6 -5 -10 -19 -10 -25 0 -26 -2 -26 -60 0 -47 -3 -60 -15
-60 -12 0 -15 13 -15 59 l0 59 -45 0 c-38 0 -45 -3 -45 -19 0 -12 7 -19 20
-19 11 0 20 -5 20 -11 0 -6 -9 -9 -20 -6 -17 4 -20 0 -20 -25 0 -27 3 -30 25
-26 14 3 25 1 25 -3 0 -5 -17 -9 -37 -9 l-38 0 0 69 0 70 92 0 c51 0 95 -4 98
-9z m-115 -225 l0 -35 55 0 c52 0 55 -1 55 -25 0 -23 -4 -25 -45 -25 -25 0
-45 -3 -45 -6 0 -11 41 -74 48 -74 4 0 15 -7 25 -14 15 -12 17 -18 7 -35 -11
-21 -12 -21 -41 -4 -17 10 -42 36 -55 58 -13 22 -24 34 -24 27 0 -7 -21 -33
-46 -58 -43 -44 -46 -45 -64 -29 -18 16 -17 18 26 59 57 55 57 74 2 78 -36 2
-44 7 -46 26 -3 20 0 22 46 22 52 0 62 9 62 51 0 12 7 19 20 19 16 0 20 -7 20
-35z m0 -305 l0 -50 55 0 c48 0 55 -2 55 -20 0 -16 -7 -20 -35 -20 -35 0 -35
0 -35 -45 0 -35 4 -45 16 -45 9 0 18 9 21 20 6 22 11 24 32 11 10 -7 11 -16 4
-37 -9 -27 -14 -29 -59 -29 l-49 0 -3 63 c-2 52 -6 62 -21 62 -14 0 -20 -10
-25 -39 -9 -60 -84 -116 -100 -75 -6 15 17 43 36 44 5 0 28 54 28 66 0 2 -16
4 -35 4 -28 0 -35 4 -35 20 0 18 7 20 55 20 l55 0 0 50 c0 43 3 50 20 50 17 0
20 -7 20 -50z m-75 10 c17 -34 13 -50 -13 -50 -23 0 -47 60 -29 72 20 13 26
10 42 -22z m159 24 c13 -5 13 -9 -1 -40 -15 -31 -40 -44 -56 -28 -7 7 24 74
34 74 4 0 14 -3 23 -6z"/>
<path d="M1417 1275 c-8 -20 -4 -29 11 -24 5 2 6 13 2 23 -6 19 -7 19 -13 1z"/>
<path d="M382 1718 c5 -15 28 -23 28 -10 0 5 -7 13 -16 16 -10 4 -14 1 -12 -6z"/>
<path d="M1971 1244 c-28 -12 -32 -18 -29 -46 3 -31 6 -33 44 -36 28 -2 47 2
58 13 45 45 -8 96 -73 69z"/>
<path d="M191 1011 c-10 -6 -9 -10 5 -15 20 -8 25 -4 16 11 -4 7 -13 9 -21 4z"/>
<path d="M1946 1041 c-24 -26 -17 -53 17 -69 42 -20 87 0 87 39 0 48 -70 68
-104 30z"/>
<path d="M212 883 c-21 -18 -25 -31 -23 -67 1 -20 23 -18 88 9 31 13 33 16 22
37 -22 42 -53 49 -87 21z"/>
<path d="M1340 280 c0 -5 7 -10 15 -10 8 0 15 5 15 10 0 6 -7 10 -15 10 -8 0
-15 -4 -15 -10z"/>
<path d="M784 215 c22 -17 46 -20 46 -6 0 10 -25 21 -48 21 -15 -1 -14 -3 2
-15z"/>
<path d="M1075 170 c-4 -6 7 -10 24 -10 17 0 31 5 31 10 0 6 -11 10 -24 10
-14 0 -28 -4 -31 -10z"/>
</g>
</svg>
