<?xml version="1.0" standalone="no"?>
<!DOCTYPE svg PUBLIC "-//W3C//DTD SVG 20010904//EN"
 "http://www.w3.org/TR/2001/REC-SVG-20010904/DTD/svg10.dtd">
<svg version="1.0" xmlns="http://www.w3.org/2000/svg"
 width="368.000000pt" height="137.000000pt" viewBox="0 0 368.000000 137.000000"
 preserveAspectRatio="xMidYMid meet">

<g transform="translate(0.000000,137.000000) scale(0.100000,-0.100000)"
fill="#000000" stroke="none">
<path d="M445 1097 c-4 -8 -5 -18 -4 -23 7 -40 -2 -52 -48 -63 -27 -7 -65 -23
-85 -36 l-37 -25 -29 25 c-17 14 -35 25 -41 25 -15 0 -14 -27 2 -37 36 -23 39
-40 13 -80 -14 -21 -30 -59 -37 -85 -12 -49 -11 -49 -74 -52 -39 -2 -22 -30
19 -33 22 -1 43 -8 47 -15 6 -8 9 3 9 28 0 78 28 143 84 200 58 57 120 83 205
85 25 1 38 3 29 6 -10 2 -18 14 -19 26 -3 52 -5 60 -16 64 -7 3 -15 -2 -18
-10z"/>
<path d="M528 1003 c7 -3 16 -2 19 1 4 3 -2 6 -13 5 -11 0 -14 -3 -6 -6z"/>
<path d="M585 983 c50 -26 106 -85 131 -138 13 -27 24 -43 24 -35 0 8 -11 35
-25 59 -14 23 -25 47 -25 51 0 5 12 22 26 39 22 27 24 32 9 37 -9 4 -21 0 -28
-8 -32 -38 -43 -40 -82 -13 -21 14 -43 25 -49 25 -6 -1 3 -8 19 -17z"/>
<path d="M1040 984 c0 -12 -7 -15 -25 -12 -17 4 -31 -2 -46 -18 l-22 -24 21 0
c19 0 22 -5 22 -44 0 -54 24 -76 85 -76 44 1 65 13 84 48 10 20 8 25 -16 47
l-28 24 33 1 c17 0 32 4 32 8 0 17 -25 32 -52 32 -18 0 -28 5 -28 15 0 10 -10
15 -30 15 -21 0 -30 -5 -30 -16z m51 -64 c34 -19 21 -80 -17 -80 -34 0 -50 35
-29 66 18 27 19 28 46 14z"/>
<path d="M2890 985 c0 -9 -9 -15 -22 -15 -13 0 -34 -9 -48 -20 l-25 -20 23 0
c19 0 22 -5 22 -40 0 -55 26 -80 85 -80 71 0 124 64 75 90 -29 16 -24 30 10
30 28 0 29 2 18 20 -8 12 -24 20 -40 20 -18 0 -28 5 -28 15 0 10 -11 15 -35
15 -24 0 -35 -5 -35 -15z m64 -77 c20 -29 20 -34 -4 -58 -16 -16 -25 -18 -40
-10 -26 14 -27 65 -2 79 24 15 29 14 46 -11z"/>
<path d="M460 965 c0 -17 5 -25 18 -25 14 0 15 2 2 10 -13 9 -13 10 0 10 12 0
13 2 1 9 -11 7 -11 9 0 14 10 4 9 6 -3 6 -13 1 -18 -7 -18 -24z"/>
<path d="M1208 865 l3 -125 30 0 29 0 0 70 c0 56 3 70 15 70 20 0 19 24 -1 45
-9 8 -14 24 -11 34 3 15 -2 20 -25 25 -17 3 -33 6 -37 6 -3 0 -5 -56 -3 -125z"/>
<path d="M1807 967 c6 -30 -21 -96 -42 -102 -8 -3 -22 -7 -31 -10 -13 -4 -14
-8 -4 -20 18 -22 40 -18 71 11 l27 26 40 -27 c34 -22 44 -25 62 -15 21 11 21
12 -11 28 -37 19 -59 53 -59 93 0 19 -6 28 -22 33 -34 9 -36 8 -31 -17z"/>
<path d="M1970 955 c0 -32 -2 -35 -30 -35 -23 0 -30 -4 -30 -20 0 -16 7 -20
30 -20 28 0 30 -2 30 -40 0 -38 1 -40 33 -40 l32 0 -3 89 c-3 82 -5 90 -25 95
-35 9 -37 8 -37 -29z"/>
<path d="M2157 931 c-6 -69 -29 -110 -68 -118 l-29 -5 25 -20 c22 -17 27 -18
53 -4 16 8 33 23 36 32 6 15 10 14 34 -8 38 -35 58 -40 83 -19 l22 17 -32 14
c-39 16 -61 56 -61 110 0 34 -4 42 -26 50 -14 6 -27 10 -28 10 -2 0 -6 -26 -9
-59z"/>
<path d="M2330 944 c0 -42 -1 -44 -30 -44 -22 0 -30 -5 -30 -18 0 -15 6 -18
30 -14 l30 4 0 -106 0 -106 30 0 30 0 0 154 0 154 -30 11 -30 10 0 -45z"/>
<path d="M2630 900 l0 -90 -60 0 -60 0 0 65 0 65 50 0 c28 0 50 4 50 8 0 23
-29 32 -99 32 l-76 0 3 -100 3 -99 97 -3 97 -3 3 -57 c3 -54 5 -58 27 -58 25
0 25 0 25 106 0 67 4 103 10 99 6 -3 10 -50 10 -106 l0 -99 30 0 30 0 0 153 0
154 -25 11 c-36 16 -35 17 -35 -33 0 -25 -4 -45 -10 -45 -5 0 -10 16 -10 35 0
29 -5 37 -26 45 -14 6 -27 10 -30 10 -2 0 -4 -40 -4 -90z"/>
<path d="M3060 901 l0 -91 30 0 c28 0 30 3 30 35 0 28 4 35 19 35 14 0 18 5
14 21 -3 11 -12 23 -20 26 -10 4 -12 14 -9 29 4 16 2 24 -6 24 -7 0 -23 3 -35
6 -23 6 -23 5 -23 -85z"/>
<path d="M3224 965 c-14 -20 -12 -20 96 -23 l110 -3 0 -64 0 -65 29 0 29 0 4
73 c2 39 0 77 -5 84 -6 8 -50 13 -129 15 -111 3 -122 1 -134 -17z"/>
<path d="M369 973 c-1 -5 0 -17 1 -28 l2 -20 -16 20 -16 20 7 -20 c6 -18 5
-19 -11 -6 -26 22 -47 -3 -22 -27 15 -15 19 -15 29 -2 7 8 21 17 32 18 28 5
37 16 29 35 -6 17 -33 24 -35 10z m-31 -51 c2 -7 -1 -12 -8 -12 -6 0 -9 4 -6
9 4 5 1 12 -4 14 -6 3 -5 4 2 3 6 -1 14 -8 16 -14z"/>
<path d="M526 964 c-9 -23 -8 -24 17 -33 23 -9 47 2 47 22 0 6 -7 2 -16 -9
-14 -18 -15 -18 -9 6 5 21 4 22 -5 8 -15 -24 -33 -23 -25 2 7 24 0 27 -9 4z"/>
<path d="M1363 958 c-15 -17 -10 -18 100 -18 l117 0 0 -35 0 -35 -118 0 c-106
0 -118 -2 -130 -20 -12 -19 -10 -20 64 -20 66 0 75 -2 72 -17 -2 -13 -15 -19
-42 -21 -22 -2 -51 -12 -64 -23 l-25 -19 122 0 121 0 0 -45 c0 -43 1 -45 29
-45 28 0 29 2 33 51 4 62 -11 79 -70 79 -35 0 -42 3 -42 20 0 18 7 20 85 20
83 0 85 1 73 20 -7 11 -21 20 -31 20 -15 0 -18 7 -16 40 2 22 -2 45 -7 50 -6
6 -63 12 -133 13 -106 2 -125 0 -138 -15z"/>
<path d="M420 950 c0 -6 7 -10 15 -10 8 0 15 2 15 4 0 2 -7 6 -15 10 -8 3 -15
1 -15 -4z"/>
<path d="M600 925 c-9 -11 -10 -19 -3 -26 6 -6 16 -2 29 13 l19 23 -22 -19
c-24 -20 -32 -9 -11 12 7 7 9 12 6 12 -3 0 -11 -7 -18 -15z"/>
<path d="M438 923 c12 -2 32 -2 45 0 12 2 2 4 -23 4 -25 0 -35 -2 -22 -4z"/>
<path d="M541 907 c2 -2 22 -15 44 -31 l40 -27 -35 30 c-19 17 -39 31 -44 31
-5 0 -7 -1 -5 -3z"/>
<path d="M632 890 c-10 -16 -10 -20 1 -20 7 0 13 9 14 20 1 11 1 20 0 20 -1 0
-8 -9 -15 -20z"/>
<path d="M277 884 c3 -7 9 -14 14 -14 14 0 10 17 -5 23 -10 4 -13 1 -9 -9z"/>
<path d="M487 888 c-3 -9 0 -19 8 -22 7 -2 16 2 19 10 3 8 2 13 -3 9 -5 -3
-11 0 -13 7 -3 8 -7 6 -11 -4z"/>
<path d="M250 884 c0 -6 5 -15 12 -22 9 -9 7 -12 -10 -12 -24 0 -28 -10 -11
-27 17 -17 3 -44 -18 -37 -16 5 -16 4 1 -6 21 -14 36 0 36 34 0 10 6 24 14 30
12 9 11 14 -5 30 -10 11 -19 15 -19 10z"/>
<path d="M410 875 c0 -6 10 -11 23 -12 12 0 16 1 9 4 -6 3 -10 8 -8 12 3 4 -1
8 -9 8 -8 0 -15 -5 -15 -12z"/>
<path d="M3268 833 c-3 -58 -3 -58 -35 -58 -18 0 -40 -8 -50 -17 -16 -17 -8
-18 175 -18 106 0 192 3 192 8 -1 19 -27 41 -37 31 -6 -6 -30 -9 -54 -7 l-44
3 -3 58 c-3 56 -4 57 -32 57 -30 0 -30 -1 -30 -54 0 -30 -4 -58 -10 -61 -6 -4
-10 17 -10 54 0 61 0 61 -30 61 -28 0 -29 -1 -32 -57z"/>
<path d="M350 850 c0 -11 7 -20 15 -20 8 0 15 9 15 20 0 11 -7 20 -15 20 -8 0
-15 -9 -15 -20z"/>
<path d="M657 858 c-12 -9 -14 -17 -7 -28 8 -13 10 -13 10 2 0 9 4 20 10 23 5
3 8 0 7 -7 -2 -7 -2 -10 0 -5 3 4 9 5 14 2 5 -4 6 1 3 9 -7 19 -15 20 -37 4z"/>
<path d="M547 854 c-9 -10 2 -24 19 -24 8 0 14 7 14 15 0 15 -21 21 -33 9z"/>
<path d="M631 820 c14 -31 19 -36 19 -24 0 6 -7 19 -16 30 -14 18 -14 18 -3
-6z"/>
<path d="M430 805 c0 -22 -4 -25 -35 -25 -31 0 -35 -3 -35 -25 0 -22 4 -25 35
-25 l35 0 0 -80 c0 -79 0 -80 25 -80 25 0 25 1 25 80 l0 80 40 0 c36 0 40 3
40 25 0 23 -4 25 -40 25 -36 0 -40 3 -40 25 0 20 -5 25 -25 25 -20 0 -25 -5
-25 -25z"/>
<path d="M314 806 c-8 -9 -7 -15 2 -23 9 -9 13 -9 17 1 8 20 -6 36 -19 22z"/>
<path d="M670 810 c-13 -9 -13 -10 0 -10 8 0 22 5 30 10 13 9 13 10 0 10 -8 0
-22 -5 -30 -10z"/>
<path d="M602 796 c7 -8 15 -12 17 -11 5 6 -10 25 -20 25 -5 0 -4 -6 3 -14z"/>
<path d="M695 790 c-16 -7 -17 -9 -3 -9 9 -1 20 4 23 9 7 11 7 11 -20 0z"/>
<path d="M743 730 c0 -36 2 -55 4 -42 4 22 21 27 71 23 16 -1 22 4 22 19 0 15
-6 20 -22 19 -50 -4 -67 1 -71 24 -2 12 -4 -7 -4 -43z"/>
<path d="M1851 764 c-37 -31 -40 -62 -7 -93 47 -44 129 -37 162 15 15 22 16
27 3 34 -8 5 -23 16 -34 25 -20 16 -20 16 5 11 l25 -5 -24 20 c-34 28 -92 25
-130 -7z m94 -20 c19 -20 16 -43 -7 -58 -38 -23 -78 35 -42 61 23 17 29 16 49
-3z"/>
<path d="M2858 763 l-21 -23 116 0 117 0 0 -42 c0 -39 2 -43 24 -43 22 0 25 4
28 53 2 34 -2 57 -9 64 -7 6 -62 11 -123 12 -103 1 -113 -1 -132 -21z"/>
<path d="M653 730 c0 -30 2 -43 4 -27 2 15 2 39 0 55 -2 15 -4 2 -4 -28z"/>
<path d="M1010 720 l0 -60 137 0 c128 0 136 1 121 17 -13 13 -37 17 -105 17
l-88 1 -3 36 c-3 35 -18 48 -54 49 -5 0 -8 -27 -8 -60z"/>
<path d="M206 762 c-10 -9 -6 -32 5 -32 6 0 17 6 24 14 12 12 12 15 -5 19 -10
3 -21 2 -24 -1z"/>
<path d="M263 735 c0 -22 2 -30 4 -17 2 12 2 30 0 40 -3 9 -5 -1 -4 -23z"/>
<path d="M675 760 c-7 -12 2 -30 16 -30 5 0 9 5 9 11 0 5 -5 7 -12 3 -8 -5 -9
-2 -5 9 7 19 2 23 -8 7z"/>
<path d="M300 710 c-13 -9 -13 -11 0 -20 10 -7 11 -10 2 -10 -10 0 -9 -7 3
-30 20 -38 19 -45 -2 -29 -10 7 -2 -4 16 -24 19 -20 37 -37 40 -37 2 0 -6 11
-19 25 -24 25 -16 36 9 13 11 -11 11 -9 2 10 -8 14 -8 22 -1 22 5 0 9 3 9 8
-4 24 4 32 31 32 23 0 30 5 30 19 0 20 -25 35 -42 25 -5 -3 -7 -12 -4 -20 4
-10 -3 -14 -22 -14 -21 0 -24 2 -12 10 13 9 13 11 0 20 -8 5 -17 10 -20 10 -3
0 -12 -5 -20 -10z m37 -46 c-3 -3 -12 -4 -19 -1 -8 3 -5 6 6 6 11 1 17 -2 13
-5z"/>
<path d="M500 683 c0 -45 1 -46 33 -49 25 -1 27 1 29 35 l1 36 4 -32 c4 -27 9
-33 29 -33 13 0 24 1 24 3 0 1 4 16 9 34 l9 31 -69 4 -69 3 0 -32z m37 11 c-3
-3 -12 -4 -19 -1 -8 3 -5 6 6 6 11 1 17 -2 13 -5z m83 -3 c0 -17 -12 -41 -21
-41 -5 0 -9 11 -9 25 0 16 6 25 15 25 8 0 15 -4 15 -9z m-83 -17 c-3 -3 -12
-4 -19 -1 -8 3 -5 6 6 6 11 1 17 -2 13 -5z m0 -20 c-3 -3 -12 -4 -19 -1 -8 3
-5 6 6 6 11 1 17 -2 13 -5z"/>
<path d="M688 713 c6 -2 18 -2 25 0 6 3 1 5 -13 5 -14 0 -19 -2 -12 -5z"/>
<path d="M205 700 c-9 -15 4 -30 25 -30 13 0 17 -5 14 -14 -3 -9 -12 -12 -22
-8 -15 5 -15 4 0 -12 13 -13 22 -15 35 -7 11 6 13 11 5 11 -7 0 -12 6 -11 13
5 38 -2 57 -20 57 -11 0 -23 -4 -26 -10z m35 -10 c0 -5 -7 -10 -15 -10 -8 0
-15 5 -15 10 0 6 7 10 15 10 8 0 15 -4 15 -10z"/>
<path d="M695 690 c-16 -7 -17 -9 -3 -9 9 -1 19 -7 21 -13 3 -7 6 -3 6 10 1
12 0 22 -1 21 -2 0 -12 -4 -23 -9z"/>
<path d="M181 665 c-1 -11 12 -43 28 -72 l28 -51 -23 -29 c-13 -15 -23 -34
-24 -40 0 -17 27 -17 37 0 24 37 39 38 94 7 30 -16 63 -30 74 -29 12 0 4 6
-18 13 -88 32 -151 95 -183 183 -7 22 -13 30 -13 18z"/>
<path d="M627 637 l-17 -32 20 24 c17 20 26 41 18 41 -2 0 -11 -15 -21 -33z"/>
<path d="M370 621 c0 -41 16 -56 41 -40 12 7 12 9 -1 9 -13 0 -13 1 0 10 13 9
13 11 0 20 -10 6 -11 10 -2 10 6 0 12 7 12 15 0 9 -9 15 -25 15 -22 0 -25 -4
-25 -39z m37 23 c-3 -3 -12 -4 -19 -1 -8 3 -5 6 6 6 11 1 17 -2 13 -5z"/>
<path d="M717 615 c-38 -92 -154 -165 -261 -165 -29 0 -37 -3 -26 -9 8 -6 14
-24 13 -45 -1 -29 3 -36 19 -36 12 0 19 6 17 18 -5 52 0 59 49 71 26 7 64 23
85 37 35 23 38 24 62 8 14 -9 25 -20 25 -25 0 -5 7 -9 15 -9 23 0 18 26 -10
56 -22 24 -23 29 -11 43 20 23 48 81 44 92 -2 5 -11 -11 -21 -36z"/>
<path d="M661 647 c2 -1 13 -9 23 -17 11 -8 17 -10 13 -3 -4 6 -1 14 5 16 7 3
0 6 -16 6 -16 1 -27 0 -25 -2z"/>
<path d="M520 610 c25 -8 25 -8 -5 -10 -26 -1 -27 -3 -10 -9 l20 -8 -20 -5
c-13 -4 -9 -6 13 -7 20 -1 31 3 27 9 -3 6 4 10 17 10 17 0 20 2 9 9 -11 7 -9
10 10 14 13 2 -1 4 -31 5 -41 0 -49 -2 -30 -8z"/>
<path d="M1008 520 c2 -38 8 -70 13 -70 5 0 9 11 9 24 0 37 17 40 36 6 10 -16
24 -30 31 -30 18 0 16 11 -7 40 -25 31 -25 36 1 71 17 24 18 29 5 29 -9 0 -23
-11 -32 -25 -9 -14 -20 -25 -25 -25 -5 0 -9 11 -9 25 0 14 -6 25 -12 25 -10 0
-12 -19 -10 -70z"/>
<path d="M1140 570 c-26 -26 -26 -81 -2 -103 27 -25 78 -22 96 5 22 31 20 60
-5 92 -25 31 -61 34 -89 6z m80 -31 c9 -16 8 -26 -5 -45 -8 -13 -22 -24 -30
-24 -19 0 -45 28 -45 49 0 41 61 57 80 20z"/>
<path d="M1270 518 c0 -39 4 -68 10 -68 6 0 10 27 10 61 l0 60 32 -3 c35 -3
55 -38 22 -38 -16 0 -16 -1 -1 -18 10 -10 17 -28 17 -40 0 -12 4 -22 9 -22 5
0 9 29 9 65 0 72 -6 78 -72 73 l-36 -2 0 -68z"/>
<path d="M1408 520 l4 -70 49 0 c27 0 49 5 49 10 0 6 -18 10 -40 10 -36 0 -40
3 -40 25 0 23 4 25 40 25 22 0 40 5 40 10 0 6 -18 10 -40 10 -29 0 -40 4 -40
15 0 11 11 15 40 15 22 0 40 5 40 10 0 6 -24 10 -52 10 l-53 0 3 -70z"/>
<path d="M1550 524 c-12 -36 -20 -68 -17 -71 9 -8 27 7 27 23 0 23 47 18 53
-6 3 -11 11 -20 17 -20 14 0 8 29 -20 94 -10 25 -24 46 -29 46 -5 0 -19 -30
-31 -66z m50 -6 c0 -5 -7 -8 -15 -8 -17 0 -18 2 -9 25 5 13 8 14 15 3 5 -7 9
-16 9 -20z"/>
<path d="M1660 520 c0 -78 17 -96 22 -22 l3 47 30 -47 c43 -68 55 -63 55 22 0
78 -17 96 -22 23 l-3 -48 -33 48 c-18 26 -37 47 -42 47 -6 0 -10 -31 -10 -70z"/>
<path d="M1831 520 l2 -70 42 0 c53 0 63 13 61 73 -3 56 -14 67 -69 67 l-38 0
2 -70z m79 40 c13 -9 13 -12 -1 -23 -14 -10 -14 -14 -2 -25 18 -17 8 -32 -23
-32 -21 0 -24 4 -24 38 0 52 15 65 50 42z"/>
<path d="M1968 520 c5 -91 22 -91 22 0 0 49 -4 70 -12 70 -10 0 -12 -19 -10
-70z"/>
<path d="M2010 519 l0 -70 46 3 c51 3 73 23 59 54 -4 11 -7 30 -6 43 3 30 -13
41 -61 41 l-38 0 0 -71z m80 26 c0 -8 -5 -15 -12 -15 -9 0 -9 -3 0 -12 20 -20
14 -38 -13 -38 -22 0 -25 4 -25 40 0 36 3 40 25 40 16 0 25 -6 25 -15z"/>
<path d="M2138 520 l4 -70 44 0 c24 0 44 5 44 10 0 6 -16 10 -35 10 l-35 0 0
60 c0 41 -4 60 -12 60 -10 0 -12 -19 -10 -70z"/>
<path d="M2248 520 l4 -70 49 0 c27 0 49 5 49 10 0 6 -18 10 -40 10 -36 0 -40
3 -40 25 0 23 4 25 40 25 22 0 40 5 40 10 0 6 -18 10 -40 10 -29 0 -40 4 -40
15 0 11 11 15 41 15 24 0 38 4 34 10 -3 6 -27 10 -53 10 l-47 0 3 -70z"/>
<path d="M2410 539 c0 -68 13 -89 53 -89 18 0 38 5 45 12 17 17 16 128 -1 128
-9 0 -12 -11 -9 -35 7 -56 -5 -87 -31 -83 -19 3 -22 10 -25 61 -2 42 -7 57
-17 57 -11 0 -15 -13 -15 -51z"/>
<path d="M2638 543 l-3 -48 -29 43 c-42 61 -56 56 -56 -23 0 -75 17 -89 22
-17 l3 47 30 -47 c43 -68 55 -63 55 22 0 78 -17 96 -22 23z"/>
<path d="M2680 520 c0 -56 3 -70 15 -70 12 0 15 14 15 70 0 56 -3 70 -15 70
-12 0 -15 -14 -15 -70z"/>
<path d="M2745 524 c14 -37 25 -68 25 -70 0 -2 6 -4 14 -4 12 0 56 104 56 132
0 23 -20 2 -37 -39 l-19 -48 -19 48 c-10 26 -24 47 -31 47 -11 0 -8 -16 11
-66z"/>
<path d="M2868 520 l4 -70 49 0 c37 0 49 4 49 15 0 11 -11 15 -40 15 -33 0
-40 3 -40 20 0 17 7 20 40 20 22 0 40 5 40 10 0 6 -18 10 -40 10 -29 0 -40 4
-40 15 0 11 11 15 40 15 22 0 40 5 40 10 0 6 -24 10 -52 10 l-53 0 3 -70z"/>
<path d="M2996 538 c1 -84 7 -98 13 -33 6 59 7 60 39 63 27 3 32 0 32 -17 0
-13 -7 -21 -17 -21 -17 -1 -17 -1 0 -11 10 -6 17 -22 17 -39 0 -20 5 -30 15
-30 9 0 12 6 8 15 -3 9 -6 39 -7 68 l-1 52 -50 3 -50 3 1 -53z"/>
<path d="M3130 575 c-17 -21 -3 -54 28 -61 38 -9 42 -13 35 -29 -7 -21 -40
-19 -52 2 -5 10 -13 14 -17 10 -16 -16 13 -42 46 -42 66 0 66 61 1 78 -18 4
-31 13 -28 20 5 15 47 22 47 8 0 -6 7 -11 15 -11 13 0 14 4 5 20 -13 24 -62
27 -80 5z"/>
<path d="M3248 520 c5 -91 22 -91 22 0 0 49 -4 70 -12 70 -10 0 -12 -19 -10
-70z"/>
<path d="M3290 580 c0 -5 9 -10 20 -10 18 0 20 -7 20 -60 0 -33 4 -60 10 -60
6 0 10 25 10 56 0 47 3 57 20 61 37 10 20 23 -30 23 -27 0 -50 -4 -50 -10z"/>
<path d="M3439 554 c12 -19 21 -48 21 -65 0 -19 5 -29 15 -29 10 0 15 10 15
31 0 18 9 47 21 65 17 28 18 34 5 34 -8 0 -22 -12 -30 -27 l-14 -28 -13 28
c-7 15 -19 27 -27 27 -11 0 -9 -8 7 -36z"/>
<path d="M275 571 c-3 -5 -1 -12 5 -16 5 -3 10 1 10 9 0 18 -6 21 -15 7z"/>
<path d="M630 570 c0 -5 5 -10 11 -10 5 0 7 5 4 10 -3 6 -8 10 -11 10 -2 0 -4
-4 -4 -10z"/>
<path d="M570 539 c0 -5 5 -7 12 -3 8 5 9 0 5 -15 -3 -13 -1 -21 5 -19 5 2 9
7 9 11 -1 4 -1 14 -1 22 0 8 -7 15 -15 15 -8 0 -15 -5 -15 -11z"/>
<path d="M326 524 c-9 -24 -2 -26 12 -4 7 11 8 20 3 20 -5 0 -12 -7 -15 -16z"/>
<path d="M443 533 c9 -2 25 -2 35 0 9 3 1 5 -18 5 -19 0 -27 -2 -17 -5z"/>
<path d="M395 511 c-3 -5 -1 -12 5 -16 6 -4 8 -11 5 -16 -4 -5 -2 -9 3 -9 12
0 24 29 16 41 -7 12 -21 12 -29 0z"/>
<path d="M490 505 c0 -8 2 -15 4 -15 2 0 6 7 10 15 3 8 1 15 -4 15 -6 0 -10
-7 -10 -15z"/>
<path d="M506 485 c-3 -8 -1 -15 4 -15 6 0 10 7 10 15 0 8 -2 15 -4 15 -2 0
-6 -7 -10 -15z"/>
</g>
</svg>
